<svg width="48" height="12" viewBox="0 0 48 12" fill="none" xmlns="http://www.w3.org/2000/svg">
<path d="M0.666667 6C0.666667 8.94552 3.05448 11.3333 6 11.3333C8.94552 11.3333 11.3333 8.94552 11.3333 6C11.3333 3.05448 8.94552 0.666667 6 0.666667C3.05448 0.666667 0.666667 3.05448 0.666667 6ZM36.6667 6C36.6667 8.94552 39.0545 11.3333 42 11.3333C44.9455 11.3333 47.3333 8.94552 47.3333 6C47.3333 3.05448 44.9455 0.666667 42 0.666667C39.0545 0.666667 36.6667 3.05448 36.6667 6ZM6 7H9V5H6V7ZM15 7H21V5H15V7ZM27 7H33V5H27V7ZM39 7H42V5H39V7Z" fill="#0B3CEA"/>
</svg>
