<svg width="32" height="33" viewBox="0 0 32 33" fill="none" xmlns="http://www.w3.org/2000/svg">
<mask id="mask0_479_47" style="mask-type:alpha" maskUnits="userSpaceOnUse" x="0" y="0" width="32" height="33">
<rect y="0.0200195" width="32" height="32" fill="#D9D9D9"/>
</mask>
<g mask="url(#mask0_479_47)">
<path d="M8.73331 22.02L10.6666 18.6867C9.19998 18.6867 7.94442 18.1645 6.89998 17.12C5.85554 16.0756 5.33331 14.82 5.33331 13.3534C5.33331 11.8867 5.85554 10.6311 6.89998 9.58669C7.94442 8.54224 9.19998 8.02002 10.6666 8.02002C12.1333 8.02002 13.3889 8.54224 14.4333 9.58669C15.4778 10.6311 16 11.8867 16 13.3534C16 13.8645 15.9389 14.3367 15.8166 14.77C15.6944 15.2034 15.5111 15.62 15.2666 16.02L11.0333 23.3534C10.9222 23.5534 10.7666 23.7145 10.5666 23.8367C10.3666 23.9589 10.1444 24.02 9.89998 24.02C9.38887 24.02 9.00553 23.7978 8.74998 23.3534C8.49442 22.9089 8.48887 22.4645 8.73331 22.02ZM20.7333 22.02L22.6666 18.6867C21.2 18.6867 19.9444 18.1645 18.9 17.12C17.8555 16.0756 17.3333 14.82 17.3333 13.3534C17.3333 11.8867 17.8555 10.6311 18.9 9.58669C19.9444 8.54224 21.2 8.02002 22.6666 8.02002C24.1333 8.02002 25.3889 8.54224 26.4333 9.58669C27.4778 10.6311 28 11.8867 28 13.3534C28 13.8645 27.9389 14.3367 27.8166 14.77C27.6944 15.2034 27.5111 15.62 27.2666 16.02L23.0333 23.3534C22.9222 23.5534 22.7666 23.7145 22.5666 23.8367C22.3666 23.9589 22.1444 24.02 21.9 24.02C21.3889 24.02 21.0055 23.7978 20.75 23.3534C20.4944 22.9089 20.4889 22.4645 20.7333 22.02Z" fill="#ACB3C0"/>
</g>
</svg>
