<svg width="188" height="11" viewBox="0 0 188 11" fill="none" xmlns="http://www.w3.org/2000/svg">
<path fill-rule="evenodd" clip-rule="evenodd" d="M18.409 10.9166H0.933502V9.19028H18.409V10.9166Z" fill="#0B3CEA"/>
<path fill-rule="evenodd" clip-rule="evenodd" d="M96.0694 2.43298C96.1589 2.55163 97.048 3.73032 97.0376 5.72753C97.0482 7.75805 96.129 8.94252 96.0656 9.00598C95.0302 10.2962 94.0476 10.5606 93.3185 10.751H93.308C92.5684 10.9519 91.7126 10.9307 91.7126 10.9307H87.0215V0.503158H91.7126C91.7126 0.503158 92.579 0.492582 93.308 0.682944H93.3185L93.3544 0.692806C94.0796 0.892422 95.047 1.15871 96.0656 2.42793L96.0694 2.43298ZM94.4808 6.9966L94.4913 6.98603C94.523 6.912 94.6181 6.68991 94.6498 5.6958C94.6075 4.73342 94.5125 4.50075 94.4808 4.42672V4.40557C94.1783 3.23491 93.3467 2.78652 93.2069 2.71119L93.2067 2.71105C93.2001 2.70751 93.1951 2.7048 93.1918 2.70289C92.3782 2.24814 91.216 2.30102 91.216 2.30102H89.3353V9.11173H91.216C91.216 9.11173 92.3782 9.17519 93.1918 8.70986C93.2763 8.67813 94.1744 8.23395 94.4808 7.00718V6.9966Z" fill="white"/>
<path d="M74.1103 0.513741H76.0332L81.9076 7.51482V0.513741H84.1053V10.9519H82.1401L76.3185 4.01428V10.9413H74.1103V0.513741Z" fill="white"/>
<path d="M70.9617 0.524301H68.7112V10.9519H70.9617V0.524301Z" fill="white"/>
<path d="M133.077 0.513741L138.941 7.50424V0.513741H141.138V10.9413H139.173L133.352 4.01428V10.9308H131.133V0.513741H133.077Z" fill="white"/>
<path d="M166.908 0.513741H168.852L174.726 7.51482V0.513741H176.924V10.9519H174.959L169.127 4.01428V10.9413H166.908V0.513741Z" fill="white"/>
<path fill-rule="evenodd" clip-rule="evenodd" d="M116.721 1.06366C116.066 0.682936 115.337 0.524301 114.576 0.524301H109.737V10.9413H112.009C111.998 10.0635 111.998 7.88495 111.998 7.88495C111.998 7.88495 113.805 7.89553 114.534 7.88495C115.158 7.88495 115.749 7.78977 116.309 7.54653C117.081 7.21869 117.672 6.70048 118.063 5.96018C118.507 5.12471 118.591 4.23635 118.38 3.31627C118.169 2.31159 117.598 1.57129 116.721 1.06366ZM115.897 5.4314C115.58 5.81212 115.168 6.01306 114.693 6.02364C113.837 6.05536 112.009 6.03421 112.02 6.03421V2.36446C112.02 2.36446 113.826 2.35389 114.682 2.37504C115.57 2.39619 116.235 3.05188 116.309 3.94024C116.352 4.49017 116.256 4.9978 115.897 5.4314Z" fill="white"/>
<path d="M178.9 0.513741V2.38563H182.09L182.08 10.9202H184.32V2.38563H187.5V0.513741H178.9Z" fill="white"/>
<path fill-rule="evenodd" clip-rule="evenodd" d="M154.049 5.72753C154.06 3.73032 153.171 2.55163 153.081 2.43298L153.077 2.42793C152.059 1.1587 151.091 0.892421 150.366 0.692805L150.33 0.682944H150.32C149.591 0.492582 148.724 0.503158 148.724 0.503158H144.033V10.9307H148.724C148.724 10.9307 149.58 10.9519 150.32 10.751H150.33C151.059 10.5606 152.042 10.2962 153.077 9.00598C153.151 8.94252 154.071 7.75805 154.049 5.72753ZM151.503 7.00718C151.201 8.22884 150.321 8.66701 150.218 8.71864L150.214 8.72043C149.401 9.18576 148.238 9.12231 148.238 9.12231H146.358V2.31159H148.238C148.238 2.31159 149.401 2.25871 150.214 2.71347C150.218 2.7154 150.223 2.71816 150.229 2.72177C150.369 2.79711 151.201 3.2455 151.503 4.41615C151.503 4.41615 151.64 4.74399 151.683 5.70638C151.653 6.61678 151.557 6.8647 151.519 6.96045L151.516 6.97067L151.514 6.97545C151.514 6.98603 151.503 7.00718 151.503 7.00718Z" fill="white"/>
<path d="M106.853 0.503155V2.32217H101.169V4.80744H106.272V6.62645H101.169V9.11173H106.853V10.9307H98.9077V0.503155H106.853Z" fill="white"/>
<path d="M128.354 2.32217V0.503155H120.409V10.9307H128.354V9.11173H122.67V6.62645H127.773V4.80744H122.67V2.32217H128.354Z" fill="white"/>
<path d="M164.002 0.503155V2.32217H158.307V4.80744H163.421V6.62645H158.307V9.11173H164.002V10.9307H156.046V0.503155H164.002Z" fill="white"/>
<path d="M34.8169 0.503052L30.9605 5.738L34.8169 10.9729H32.0276L28.9953 6.85901H27.3576V10.9729H25.1072V0.503052H27.3576V4.6064H28.9953L32.0276 0.503052H34.8169Z" fill="white"/>
<path d="M38.4092 0.513638L41.2302 4.79677L44.0407 0.513638H46.5236L42.2762 6.98593V10.9306H40.2159V6.99651L35.9369 0.513638H38.4092Z" fill="white"/>
<path d="M55.1027 0.524198L57.9766 8.52996L60.8504 0.524198H63.3439L59.5826 10.9306H56.3601L52.5987 0.524198H55.1027Z" fill="white"/>
<path d="M48.4253 0.513638H50.6758V10.9412H48.4253V0.513638Z" fill="white"/>
<path d="M10.7724 2.99945V0.503601H12.1393V6.60575H10.7724V4.1099H8.29106V6.60575H6.91369V0.503601H8.29106V2.99945H10.7724Z" fill="white"/>
<path d="M18.3741 1.57175V0.514187H13.7689V6.59518H18.3741V5.52704H15.0727V4.07818H17.7959V3.02061H15.0727V1.57175H18.3741Z" fill="white"/>
<path d="M0.5 1.7621H2.53976V6.59517H3.90662V1.7621H5.94638V0.524747H0.5V1.7621Z" fill="white"/>
</svg>
