<svg width="500" height="31" viewBox="0 0 540 31" fill="none" xmlns="http://www.w3.org/2000/svg">
<path fill-rule="evenodd" clip-rule="evenodd" d="M51.711 30.0423H1.25V25.0621H51.711V30.0423Z" fill="#0B3CEA"/>
<path fill-rule="evenodd" clip-rule="evenodd" d="M275.961 5.56744C276.219 5.90972 278.786 9.30999 278.756 15.0715C278.787 20.9291 276.133 24.3461 275.95 24.5291C272.96 28.2512 270.122 29.0139 268.017 29.563H267.987C265.851 30.1427 263.38 30.0817 263.38 30.0817H249.834V0.000327972H263.38C263.38 0.000327972 265.882 -0.0301805 267.987 0.518972H268.017L268.121 0.547424C270.215 1.12327 273.008 1.89145 275.95 5.55287L275.961 5.56744ZM271.373 18.7325L271.404 18.702C271.495 18.4885 271.77 17.8478 271.861 14.98C271.739 12.2037 271.465 11.5325 271.373 11.319V11.258C270.5 7.88084 268.099 6.58733 267.695 6.37003L267.694 6.36963C267.675 6.35941 267.661 6.3516 267.651 6.34609C265.302 5.03423 261.946 5.18677 261.946 5.18677H256.516V24.8342H261.946C261.946 24.8342 265.302 25.0173 267.651 23.6749C267.895 23.5834 270.489 22.302 271.373 18.763V18.7325Z" fill="black"/>
<path d="M212.553 0.0308591H218.105L235.068 20.2275V0.0308591H241.414V30.1427H235.739L218.929 10.1292V30.1122H212.553V0.0308591Z" fill="black"/>
<path d="M203.461 0.0613229H196.963V30.1427H203.461V0.0613229Z" fill="black"/>
<path d="M382.821 0.0308591L399.753 20.197V0.0308591H406.099V30.1122H400.424L383.614 10.1292V30.0817H377.207V0.0308591H382.821Z" fill="black"/>
<path d="M480.509 0.0308591H486.122L503.085 20.2275V0.0308591H509.431V30.1427H503.756L486.916 10.1292V30.1122H480.509V0.0308591Z" fill="black"/>
<path fill-rule="evenodd" clip-rule="evenodd" d="M335.594 1.61726C333.702 0.51895 331.597 0.0613229 329.4 0.0613229H315.428V30.1122H321.987C321.956 27.58 321.956 21.2952 321.956 21.2952C321.956 21.2952 327.173 21.3257 329.278 21.2952C331.078 21.2952 332.787 21.0206 334.404 20.319C336.631 19.3732 338.339 17.8783 339.468 15.7427C340.75 13.3325 340.994 10.7698 340.383 8.11556C339.773 5.21726 338.126 3.08166 335.594 1.61726ZM333.214 14.2173C332.299 15.3156 331.109 15.8952 329.736 15.9257C327.265 16.0173 321.987 15.9562 322.017 15.9562V5.3698C322.017 5.3698 327.234 5.33929 329.705 5.40031C332.268 5.46132 334.19 7.35285 334.404 9.91556C334.526 11.502 334.251 12.9664 333.214 14.2173Z" fill="black"/>
<path d="M515.136 0.0308591V5.43086H524.349L524.319 30.0512H530.787V5.43086H539.97V0.0308591H515.136Z" fill="black"/>
<path fill-rule="evenodd" clip-rule="evenodd" d="M443.38 15.0715C443.41 9.31001 440.843 5.90974 440.584 5.56745L440.573 5.55287C437.632 1.89144 434.838 1.12327 432.744 0.547421L432.641 0.518972H432.61C430.505 -0.0301805 428.004 0.000327972 428.004 0.000327972H414.458V30.0817H428.004C428.004 30.0817 430.475 30.1427 432.61 29.563H432.641C434.746 29.0139 437.583 28.2512 440.573 24.5291C440.787 24.3461 443.441 20.9291 443.38 15.0715ZM436.027 18.763C435.154 22.2873 432.615 23.5513 432.316 23.7002L432.305 23.7054C429.956 25.0478 426.6 24.8647 426.6 24.8647H421.17V5.21728H426.6C426.6 5.21728 429.956 5.06473 432.305 6.3766C432.315 6.38218 432.33 6.39013 432.349 6.40055C432.753 6.61789 435.154 7.91141 436.027 11.2885C436.027 11.2885 436.424 12.2342 436.546 15.0105C436.459 17.6368 436.182 18.352 436.075 18.6282L436.063 18.6577L436.058 18.6715C436.058 18.702 436.027 18.763 436.027 18.763Z" fill="black"/>
<path d="M307.099 0.000320822V5.24778H290.685V12.4173H305.421V17.6647H290.685V24.8342H307.099V30.0817H284.156V0.000320822H307.099Z" fill="black"/>
<path d="M369.183 5.24778V0.000320822H346.241V30.0817H369.183V24.8342H352.77V17.6647H367.505V12.4173H352.77V5.24778H369.183Z" fill="black"/>
<path d="M472.119 0.000320822V5.24778H455.675V12.4173H470.441V17.6647H455.675V24.8342H472.119V30.0817H449.146V0.000320822H472.119Z" fill="black"/>
<path d="M99.092 0.000335693L87.9564 15.102L99.092 30.2037H91.0377L82.2818 18.3359H77.553V30.2037H71.0547V0.000335693H77.553V11.8376H82.2818L91.0377 0.000335693H99.092Z" fill="black"/>
<path d="M109.465 0.030874L117.611 12.3868L125.726 0.030874H132.895L120.631 18.7021V30.0817H114.682V18.7326L102.326 0.030874H109.465Z" fill="black"/>
<path d="M157.668 0.0613377L165.966 23.1563L174.265 0.0613377H181.465L170.604 30.0817H161.299L150.438 0.0613377H157.668Z" fill="black"/>
<path d="M138.387 0.030874H144.885V30.1122H138.387V0.030874Z" fill="black"/>
<path d="M29.662 7.20043V0.000434875H33.6088V17.6038H29.662V10.4038H22.497V17.6038H18.5198V0.000434875H22.497V7.20043H29.662Z" fill="black"/>
<path d="M51.6122 3.08182V0.0309731H38.3144V17.5733H51.6122V14.492H42.0791V10.3123H49.9424V7.26148H42.0791V3.08182H51.6122Z" fill="black"/>
<path d="M0 3.63093H5.88989V17.5733H9.83673V3.63093H15.7266V0.0614369H0V3.63093Z" fill="black"/>
</svg>